<?xml version="1.0" encoding="UTF-8"?>
<svg id="Capa_1" data-name="Capa 1" xmlns="http://www.w3.org/2000/svg" viewBox="0 0 125.65 57.66">
  <polygon points="6.62 7.97 4.67 10.01 4.58 10.43 5 10.79 6.02 10.54 7.16 8.32 7.09 7.78 6.62 7.97"/>
  <polygon points="9.03 12.57 7.33 15.76 7.36 16.32 8.01 16.61 9.17 15.95 9.81 12.81 9.54 12.18 9.03 12.57"/>
  <polygon points="8.43 7.53 9.66 5.42 9.61 4.89 9.15 5.05 7.14 6.94 7.03 7.35 7.43 7.72 8.43 7.53"/>
  <polygon points="1.96 14.63 0 17.77 0 18.34 .64 18.69 1.87 18.09 2.75 14.93 2.51 14.27 1.96 14.63"/>
  <polygon points="17.52 2.44 19.19 .77 19.28 .26 18.8 .3 16.46 1.57 16.26 1.93 16.54 2.37 17.52 2.44"/>
  <polygon points="10.92 8.84 9.18 11.19 9.15 11.64 9.63 11.96 10.64 11.56 11.52 9.13 11.37 8.59 10.92 8.84"/>
  <polygon points="4.21 11.16 2.5 13.41 2.46 13.84 2.92 14.15 3.9 13.79 4.78 11.45 4.65 10.93 4.21 11.16"/>
  <path d="M124.62,45.51c-.69-1.15-1.77-2.14-3.24-2.98-1.47-.84-3.51-1.66-6.1-2.46-1.64-.5-2.87-.92-3.67-1.26-.8-.34-1.37-.68-1.69-1s-.49-.74-.49-1.23c0-.61.31-1.08.92-1.4.61-.32,1.55-.49,2.81-.49,1.41,0,2.77.18,4.07.54,1.3.36,2.75.98,4.36,1.86l2.58-4.93c-3.25-2.29-6.9-3.44-10.95-3.44-3.59,0-6.38.69-8.37,2.06-1.99,1.38-2.98,3.31-2.98,5.79,0,2.25.78,4.08,2.35,5.47,1.57,1.4,4.24,2.69,8.02,3.87,1.72.54,3,.99,3.84,1.38.84.38,1.38.75,1.63,1.09.25.34.37.76.37,1.26,0,.65-.31,1.16-.92,1.52-.61.36-1.51.54-2.69.54-1.87,0-3.63-.36-5.27-1.09-1.64-.73-3.11-1.78-4.41-3.15l-4.24,4.53c1.8,1.83,3.89,3.24,6.28,4.21,2.39.97,4.94,1.46,7.65,1.46,3.48,0,6.21-.72,8.19-2.15,1.99-1.43,2.98-3.33,2.98-5.7,0-1.72-.34-3.15-1.03-4.3Z"/>
  <path d="M97.1,35.37l1.49-6.07h-7.45v-9.17l-7.34,3.38v5.79h-3.61l-1.6,6.07h5.1v13.58c0,2.79.72,4.93,2.15,6.42,1.43,1.49,3.5,2.24,6.22,2.24,1.03,0,2.11-.11,3.24-.34,1.13-.23,2.02-.5,2.67-.8l-1.78-5.44c-.76.38-1.62.57-2.58.57-.8,0-1.39-.19-1.78-.57-.38-.38-.57-1.01-.57-1.89v-13.76h5.85Z"/>
  <polygon points="13.26 5.57 11.29 7.73 11.21 8.17 11.66 8.53 12.7 8.25 13.83 5.92 13.74 5.37 13.26 5.57"/>
  <path d="M46.84,28.65c-.23-.88-.34-1.99-.34-3.32V5.33h-7.28v2.92c-2.06-2.33-4.64-3.5-7.74-3.5-1.67,0-3.19.27-4.59.74l-1.74-1.92-5.13-3.57-.47.93.25.59,4.58,2.79,1.57,1.51c-.48.21-.94.43-1.38.7-.82.49-1.54,1.1-2.21,1.78l-3.67-3.3-2.69-1.48.36-.74-.09-.55-.48.2-.59.65-1.8-.99-.83.69.08.04-.46-.02-2.55,1.04-.25.34.23.49,1.01.18,1.91-1.52.14-.49,1.81,1.02-.67.73-.08.44.44.36,1.04-.29.32-.65,2.36,1.33,3.8,3.23c-.66.79-1.24,1.67-1.72,2.66-1.09,2.25-1.63,4.93-1.63,8.02,0,2.9.53,5.41,1.61,7.51,1.07,2.1,2.54,3.71,4.41,4.81,1.87,1.11,3.99,1.66,6.36,1.66,1.83,0,3.52-.37,5.07-1.12,1.55-.75,2.86-1.81,3.93-3.18h.11c.15,1.6.8,3.04,1.95,4.3l6.13-2.41c-.5-.88-.86-1.76-1.09-2.64Z"/>
  <path d="M75.48,40.64c0-3.86-.8-6.81-2.41-8.85-1.6-2.04-4.18-3.07-7.74-3.07-1.84,0-3.56.4-5.19,1.2-1.62.8-2.99,1.85-4.1,3.15-.04-.61-.2-1.34-.49-2.18-.29-.84-.6-1.57-.95-2.18l-6.71,2.58c.5,1.03.83,1.97,1,2.81.17.84.26,1.83.26,2.98v20h7.57v-14.33c0-2.29.58-4.18,1.75-5.67,1.17-1.49,2.7-2.24,4.61-2.24,3.21,0,4.81,1.93,4.81,5.79v9.23c0,1.57.14,2.97.43,4.21.29,1.24.75,2.44,1.4,3.58l6.88-2.52c-.76-1.53-1.15-3.34-1.15-5.45v-9.06Z"/>
</svg>