<?xml version="1.0" encoding="UTF-8"?>
<svg id="Capa_1" data-name="Capa 1" xmlns="http://www.w3.org/2000/svg" viewBox="0 0 59.31 59.68">
  <defs>
    <style>
      .cls-1 {
        fill: #19d88e;
      }
    </style>
  </defs>
  <path class="cls-1" d="M27.88,35.79v13.38c0,1.06.42,2.08,1.17,2.83h0c2.52,2.52,6.83.74,6.83-2.83v-21.38c0-2.21-1.79-4-4-4H10.51c-3.56,0-5.35,4.31-2.83,6.83h0c.75.75,1.77,1.17,2.83,1.17h13.38c2.21,0,4,1.79,4,4Z"/>
  <path class="cls-1" d="M44.81,18.5v13.38c0,1.06.42,2.08,1.17,2.83h0c2.52,2.52,6.83.74,6.83-2.83V10.5c0-2.21-1.79-4-4-4h-21.38c-3.56,0-5.35,4.31-2.83,6.83h0c.75.75,1.77,1.17,2.83,1.17h13.38c2.21,0,4,1.79,4,4Z"/>
</svg>