<?xml version="1.0" encoding="UTF-8"?>
<svg id="Capa_1" data-name="Capa 1" xmlns="http://www.w3.org/2000/svg" viewBox="0 0 434.69 95.72">
  <defs>
    <style>
      .cls-1 {
        fill: #fff;
      }

      .cls-2 {
        fill: #19d88e;
        stroke: #19d88e;
        stroke-miterlimit: 10;
        stroke-width: 3px;
      }
    </style>
  </defs>
  <path class="cls-1" d="M118.79,95.72c-5.01,0-9.33-.86-12.96-2.57s-6.43-4.19-8.39-7.45c-1.96-3.26-2.94-7.18-2.94-11.77s1.06-8.72,3.19-11.89c2.13-3.17,5.24-5.57,9.33-7.2,4.09-1.63,9.01-2.44,14.77-2.44h18.15v9.01h-18.66c-4.84,0-8.56,1.17-11.14,3.51-2.59,2.34-3.88,5.34-3.88,9.01s1.29,6.64,3.88,8.89c2.59,2.25,6.3,3.38,11.14,3.38,2.84,0,5.55-.52,8.14-1.57,2.59-1.04,4.74-2.8,6.45-5.26,1.71-2.46,2.65-5.86,2.82-10.2l3.26,4.76c-.42,4.76-1.57,8.75-3.44,11.96-1.88,3.21-4.47,5.66-7.76,7.32-3.3,1.67-7.28,2.5-11.96,2.5ZM140.7,89.21v-15.28h-2v-23.16c0-4.59-1.19-8.05-3.57-10.39-2.38-2.33-5.87-3.5-10.45-3.5-2.59,0-5.26.04-8.01.12-2.75.08-5.38.17-7.89.25-.35.01-.69.02-1.03.04-2.99.12-5.48-2.29-5.48-5.28h0c0-2.79,2.15-5.1,4.93-5.28.29-.02.59-.04.89-.06,2.04-.12,4.15-.21,6.32-.25,2.17-.04,4.26-.06,6.26-.06,6.84,0,12.44.81,16.78,2.44,4.34,1.63,7.55,4.28,9.64,7.95,2.09,3.67,3.13,8.64,3.13,14.9v37.56c0,2.63-2.13,4.76-4.76,4.76h0c-2.63,0-4.76-2.13-4.76-4.76Z"/>
  <path class="cls-1" d="M156.6,31.86h0c0-2.63,2.13-4.76,4.76-4.76h17.53v9.52h-17.53c-2.63,0-4.76-2.13-4.76-4.76ZM170.24,16.34c-2.67,0-4.65-.71-5.95-2.13-1.3-1.42-1.94-3.21-1.94-5.38s.65-3.96,1.94-5.38c1.29-1.42,3.27-2.13,5.95-2.13s4.65.71,5.95,2.13c1.29,1.42,1.94,3.21,1.94,5.38s-.65,3.97-1.94,5.38c-1.3,1.42-3.28,2.13-5.95,2.13ZM166.86,87.95V27.1s12.02,0,12.02,0v60.85c0,3.32-2.69,6.01-6.01,6.01h0c-3.32,0-6.01-2.69-6.01-6.01Z"/>
  <path class="cls-1" d="M212.06,95.72c-5.01,0-9.33-.86-12.96-2.57s-6.43-4.19-8.39-7.45c-1.96-3.26-2.94-7.18-2.94-11.77s1.06-8.72,3.19-11.89c2.13-3.17,5.24-5.57,9.33-7.2,4.09-1.63,9.01-2.44,14.77-2.44h18.15v9.01h-18.66c-4.84,0-8.56,1.17-11.14,3.51-2.59,2.34-3.88,5.34-3.88,9.01s1.29,6.64,3.88,8.89c2.59,2.25,6.3,3.38,11.14,3.38,2.84,0,5.55-.52,8.14-1.57,2.59-1.04,4.74-2.8,6.45-5.26,1.71-2.46,2.65-5.86,2.82-10.2l3.26,4.76c-.42,4.76-1.57,8.75-3.44,11.96-1.88,3.21-4.47,5.66-7.76,7.32-3.3,1.67-7.28,2.5-11.96,2.5ZM233.97,89.21v-15.28h-2v-23.16c0-4.59-1.19-8.05-3.57-10.39-2.38-2.33-5.87-3.5-10.45-3.5-2.59,0-5.26.04-8.01.12-2.75.08-5.38.17-7.89.25-.35.01-.69.02-1.03.04-2.99.12-5.48-2.29-5.48-5.28h0c0-2.79,2.15-5.1,4.93-5.28.29-.02.59-.04.89-.06,2.04-.12,4.15-.21,6.32-.25,2.17-.04,4.26-.06,6.26-.06,6.84,0,12.44.81,16.78,2.44,4.34,1.63,7.55,4.28,9.64,7.95,2.09,3.67,3.13,8.64,3.13,14.9v37.56c0,2.63-2.13,4.76-4.76,4.76h0c-2.63,0-4.76-2.13-4.76-4.76Z"/>
  <path class="cls-1" d="M309.68,94.66c-6.68,0-12.25-1.17-16.72-3.51-4.47-2.34-8.01-5.53-10.64-9.58-2.63-4.05-4.51-8.7-5.63-13.96-1.13-5.26-1.69-10.77-1.69-16.53v-6.01c0-14.44,3.59-25.56,10.77-33.37,7.18-7.8,17.57-11.71,31.18-11.71,3.25,0,6.01.08,8.26.25.88.07,1.79.14,2.73.23,2.63.25,4.65,2.45,4.65,5.1h0c0,3.01-2.58,5.36-5.58,5.1-.7-.06-1.39-.12-2.06-.16-2.34-.17-5.18-.25-8.51-.25-7.6,0-13.61,1.42-18.03,4.26-4.43,2.84-7.6,6.91-9.52,12.21-1.92,5.3-2.88,11.71-2.88,19.22v4.96c0,.45-.06.9-.18,1.33l-2.83,10.49c.08-6.59,1.36-12.06,3.82-16.4,2.46-4.34,5.84-7.59,10.14-9.77,4.3-2.17,9.24-3.26,14.84-3.26,6.51,0,12.02,1.31,16.53,3.94s7.91,6.24,10.2,10.83c2.29,4.59,3.44,9.81,3.44,15.65s-1.21,11.23-3.63,15.9c-2.42,4.68-6.03,8.35-10.83,11.02-4.8,2.67-10.75,4.01-17.84,4.01ZM309.68,84.14c4.59,0,8.43-.88,11.52-2.63,3.09-1.75,5.4-4.15,6.95-7.2,1.54-3.05,2.32-6.57,2.32-10.58s-.75-7.55-2.25-10.64c-1.5-3.09-3.74-5.49-6.7-7.2-2.96-1.71-6.62-2.57-10.96-2.57s-8.08.79-11.46,2.38c-3.38,1.59-6.03,3.9-7.95,6.95-1.92,3.05-2.88,6.78-2.88,11.21,0,3.67.75,7.05,2.25,10.14,1.5,3.09,3.84,5.55,7.01,7.39,3.17,1.84,7.22,2.75,12.15,2.75Z"/>
  <path class="cls-1" d="M379.59,89.09c-1.41,2.55-4.62,3.55-7.18,2.16-3.78-2.06-7.14-4.61-10.08-7.64-4.13-4.26-7.33-9.28-9.58-15.09-2.25-5.8-3.38-12.12-3.38-18.97v-1.9c0-4.83.55-9.66,1.9-14.29,2.01-6.89,5.36-13,10.06-18.3,3.88-4.38,8.62-7.84,14.21-10.39,5.59-2.54,11.89-3.82,18.91-3.82,7.59,0,14.36,1.44,20.28,4.32,5.93,2.88,10.68,6.89,14.27,12.02,2.46,3.52,4.22,7.42,5.26,11.71.76,3.13-1.66,6.13-4.87,6.13h-1.53c-2.82,0-5.25-1.92-6.02-4.63-.87-3.09-2.24-5.78-4.11-8.07-2.75-3.38-6.16-5.93-10.2-7.64-4.05-1.71-8.41-2.57-13.08-2.57s-9.14.86-13.15,2.57c-4.01,1.71-7.45,4.15-10.33,7.32-2.88,3.17-5.11,6.97-6.7,11.39-1.59,4.43-2.38,9.39-2.38,14.9,0,6.26.85,11.75,2.57,16.47,1.71,4.72,4.11,8.64,7.2,11.77,1.99,2.01,4.2,3.71,6.65,5.08,2.29,1.29,3.08,4.21,1.82,6.51l-.54.97Z"/>
  <path class="cls-2" d="M425.19,64.59v13.38c0,1.06.42,2.08,1.17,2.83h0c2.52,2.52,6.83.74,6.83-2.83v-21.38c0-2.21-1.79-4-4-4h-21.38c-3.56,0-5.35,4.31-2.83,6.83h0c.75.75,1.77,1.17,2.83,1.17h13.38c2.21,0,4,1.79,4,4Z"/>
  <rect class="cls-1" x="254.16" y="25.29" width="9.08" height="9.01" rx="4.51" ry="4.51"/>
  <g>
    <path class="cls-1" d="M30.22,89.09c-1.41,2.55-4.62,3.55-7.18,2.16-3.78-2.06-7.14-4.61-10.08-7.64-4.13-4.26-7.33-9.28-9.58-15.09C1.13,62.72,0,56.39,0,49.55v-1.9c0-4.83.55-9.66,1.9-14.29,2.01-6.89,5.36-13,10.06-18.3,3.88-4.38,8.62-7.84,14.21-10.39,5.59-2.54,11.89-3.82,18.91-3.82,7.59,0,14.36,1.44,20.28,4.32,5.93,2.88,10.68,6.89,14.27,12.02,2.46,3.52,4.22,7.42,5.26,11.71.76,3.13-1.66,6.13-4.87,6.13h-1.53c-2.82,0-5.25-1.92-6.02-4.63-.87-3.09-2.24-5.78-4.11-8.07-2.75-3.38-6.16-5.93-10.2-7.64-4.05-1.71-8.41-2.57-13.08-2.57s-9.14.86-13.15,2.57c-4.01,1.71-7.45,4.15-10.33,7.32-2.88,3.17-5.11,6.97-6.7,11.39-1.59,4.43-2.38,9.39-2.38,14.9,0,6.26.85,11.75,2.57,16.47,1.71,4.72,4.11,8.64,7.2,11.77,1.99,2.01,4.2,3.71,6.65,5.08,2.29,1.29,3.08,4.21,1.82,6.51l-.54.97Z"/>
    <path class="cls-2" d="M75.82,64.59v13.38c0,1.06.42,2.08,1.17,2.83h0c2.52,2.52,6.83.74,6.83-2.83v-21.38c0-2.21-1.79-4-4-4h-21.38c-3.56,0-5.35,4.31-2.83,6.83h0c.75.75,1.77,1.17,2.83,1.17h13.38c2.21,0,4,1.79,4,4Z"/>
  </g>
</svg>